<svg width="80" height="81" viewBox="0 0 80 81" fill="none" xmlns="http://www.w3.org/2000/svg">
<path d="M72.9063 3.24658H7.10005C4.84604 3.24658 3.0188 5.07382 3.0188 7.32783V73.1341C3.0188 75.3881 4.84604 77.2153 7.10005 77.2153H72.9063C75.1603 77.2153 76.9875 75.3881 76.9875 73.1341V7.32783C76.9875 5.07382 75.1603 3.24658 72.9063 3.24658Z" fill="#3D5A98"/>
<path d="M54.05 77.2093V48.5656H63.6625L65.1 37.4031H54.05V30.2781C54.05 27.0468 54.95 24.8406 59.5812 24.8406H65.4937V14.8406C62.6306 14.5427 59.7534 14.4009 56.875 14.4156C48.3625 14.4156 42.5 19.6031 42.5 29.1718V37.4031H32.8875V48.5656H42.5V77.2093H54.05Z" fill="white"/>
</svg>
